<svg width="20" height="20" viewBox="0 0 20 20" fill="none" xmlns="http://www.w3.org/2000/svg">
<rect width="20" height="20" fill="white"/>
<path fill-rule="evenodd" clip-rule="evenodd" d="M17.7023 3.70711C18.0929 3.31658 18.0929 2.68342 17.7023 2.29289C17.3118 1.90237 16.6787 1.90237 16.2881 2.29289L9.99805 8.58298L3.70796 2.29289C3.31744 1.90237 2.68427 1.90237 2.29375 2.29289C1.90322 2.68342 1.90322 3.31658 2.29375 3.70711L8.58383 9.99719L2.29289 16.2881C1.90237 16.6787 1.90237 17.3118 2.29289 17.7023C2.68342 18.0929 3.31658 18.0929 3.70711 17.7023L9.99805 11.4114L16.289 17.7023C16.6795 18.0929 17.3127 18.0929 17.7032 17.7023C18.0937 17.3118 18.0937 16.6787 17.7032 16.2881L11.4123 9.99719L17.7023 3.70711Z" fill="black" fill-opacity="0.3"/>
</svg>
