<svg width="20" height="18" viewBox="0 0 20 18" fill="none" xmlns="http://www.w3.org/2000/svg">
<path d="M10.0009 16.5L2.36492 9.16936C1.75583 8.58462 1.34976 7.9048 1.14673 7.1299C0.948646 6.355 0.951122 5.58486 1.15415 4.81947C1.35719 4.04932 1.76078 3.37901 2.36492 2.80853C2.98393 2.22379 3.68959 1.83634 4.48191 1.64619C5.27919 1.45127 6.07399 1.45127 6.86631 1.64619C7.66359 1.8411 8.37173 2.22855 8.99073 2.80853L10.0009 3.74982L11.0112 2.80853C11.6351 2.22855 12.3432 1.8411 13.1356 1.64619C13.9279 1.45127 14.7202 1.45127 15.5125 1.64619C16.3098 1.83634 17.018 2.22379 17.637 2.80853C18.2411 3.37901 18.6447 4.04932 18.8477 4.81947C19.0508 5.58486 19.0508 6.355 18.8477 7.1299C18.6496 7.9048 18.2461 8.58462 17.637 9.16936L10.0009 16.5Z" stroke="black" stroke-opacity="0.6" stroke-width="2"/>
</svg>
